<svg xmlns="http://www.w3.org/2000/svg" version="1.1" xmlns:xlink="http://www.w3.org/1999/xlink" width="2000" height="1500" viewBox="0 0 2000 1500"><rect width="2000" height="1500" x="0" y="0" id="background" stroke="transparent" fill="#ffffff"></rect><svg xml:space="preserve" width="1500" height="1125" data-version="2" data-id="lg_pzcAWixbkpmG1aKBzr" viewBox="0 0 100 61" x="250" y="187.5"><rect width="100%" height="100%" fill="transparent"></rect><path fill="#34b7ff" d="m95.315 59.378-14.99-.785-21.983-43.329-.34-.017q.013 2.624-.007 5.296l-.058 5.315q-.019 2.652-.048 5.324l-1.37 26.165-10.536-.552L48.895 1.19l14.87.779L85.74 44.878l.27.014q.055-2.59.068-5.144.024-2.552.067-5.103.034-2.562.088-5.112l1.378-26.314 10.615.556Z"></path><rect width="49.4" height="55.68" x="-24.7" y="-27.84" fill="none" rx="0" ry="0" transform="rotate(3 -552.32 1402.1)"></rect><path fill="#ff5758" d="m30.578 57.037-11.784.617-2.399-45.797-15.099.79-.514-9.816L42.765.632l.514 9.817-15.1.79Z"></path><rect width="42.04" height="55.69" x="-21.02" y="-27.84" fill="none" rx="0" ry="0" transform="rotate(-3 585.23 -438.83)"></rect></svg></svg>